<?xml version="1.0" encoding="UTF-8"?>
<svg width="100" height="100" viewBox="0 0 100 100" fill="none" xmlns="http://www.w3.org/2000/svg">
  <rect width="100" height="100" rx="10" fill="#faf5ff"/>
  
  <!-- Yellow Group -->
  <rect x="10" y="10" width="35" height="25" rx="5" fill="#facc15" stroke="#d97706" stroke-width="2"/>
  <rect x="55" y="10" width="35" height="25" rx="5" fill="#facc15" stroke="#d97706" stroke-width="2"/>
  
  <!-- Green Group -->
  <rect x="10" y="40" width="35" height="25" rx="5" fill="#22c55e" stroke="#15803d" stroke-width="2"/>
  <rect x="55" y="40" width="35" height="25" rx="5" fill="#22c55e" stroke="#15803d" stroke-width="2"/>
  
  <!-- Blue Group -->
  <rect x="10" y="70" width="35" height="25" rx="5" fill="#3b82f6" stroke="#1d4ed8" stroke-width="2"/>
  
  <!-- Purple Group -->
  <rect x="55" y="70" width="35" height="25" rx="5" fill="#a855f7" stroke="#7e22ce" stroke-width="2"/>
  
  <!-- Connection Lines -->
  <line x1="28" y1="35" x2="28" y2="40" stroke="#15803d" stroke-width="2"/>
  <line x1="72" y1="35" x2="72" y2="40" stroke="#15803d" stroke-width="2"/>
  <line x1="28" y1="65" x2="28" y2="70" stroke="#1d4ed8" stroke-width="2"/>
  <line x1="72" y1="65" x2="72" y2="70" stroke="#7e22ce" stroke-width="2"/>
  
  <!-- Text -->
  <text x="22" y="25" font-family="Arial, sans-serif" font-size="10" font-weight="bold" fill="#d97706">WORD</text>
  <text x="67" y="25" font-family="Arial, sans-serif" font-size="10" font-weight="bold" fill="#d97706">LINK</text>
  
  <text x="19" y="55" font-family="Arial, sans-serif" font-size="10" font-weight="bold" fill="#15803d">GROUP</text>
  <text x="67" y="55" font-family="Arial, sans-serif" font-size="10" font-weight="bold" fill="#15803d">SORT</text>
  
  <text x="20" y="85" font-family="Arial, sans-serif" font-size="10" font-weight="bold" fill="white">MATCH</text>
  <text x="64" y="85" font-family="Arial, sans-serif" font-size="10" font-weight="bold" fill="white">THEME</text>
</svg>
