<svg width="100" height="100" viewBox="0 0 100 100" xmlns="http://www.w3.org/2000/svg">
  <!-- Background -->
  <rect width="100" height="100" rx="20" fill="#EBF4FF" />
  
  <!-- Ladder rungs -->
  <rect x="30" y="25" width="40" height="6" rx="3" fill="#3B82F6" />
  <rect x="30" y="45" width="40" height="6" rx="3" fill="#3B82F6" />
  <rect x="30" y="65" width="40" height="6" rx="3" fill="#3B82F6" />
  
  <!-- Ladder sides -->
  <rect x="30" y="25" width="6" height="46" rx="3" fill="#3B82F6" />
  <rect x="64" y="25" width="6" height="46" rx="3" fill="#3B82F6" />
  
  <!-- Letters -->
  <text x="23" y="20" font-family="Arial, sans-serif" font-size="14" font-weight="bold" fill="#2563EB">C</text>
  <text x="73" y="20" font-family="Arial, sans-serif" font-size="14" font-weight="bold" fill="#2563EB">A</text>
  <text x="23" y="40" font-family="Arial, sans-serif" font-size="14" font-weight="bold" fill="#2563EB">C</text>
  <text x="73" y="40" font-family="Arial, sans-serif" font-size="14" font-weight="bold" fill="#2563EB">O</text>
  <text x="23" y="60" font-family="Arial, sans-serif" font-size="14" font-weight="bold" fill="#2563EB">D</text>
  <text x="73" y="60" font-family="Arial, sans-serif" font-size="14" font-weight="bold" fill="#2563EB">G</text>
  <text x="23" y="80" font-family="Arial, sans-serif" font-size="14" font-weight="bold" fill="#2563EB">D</text>
  <text x="73" y="80" font-family="Arial, sans-serif" font-size="14" font-weight="bold" fill="#2563EB">G</text>
  
  <!-- Arrows -->
  <path d="M30 20 L40 20" stroke="#2563EB" stroke-width="2" />
  <path d="M38 17 L40 20 L38 23" stroke="#2563EB" stroke-width="2" fill="none" />
  
  <path d="M60 20 L70 20" stroke="#2563EB" stroke-width="2" />
  <path d="M68 17 L70 20 L68 23" stroke="#2563EB" stroke-width="2" fill="none" />
  
  <path d="M30 40 L40 40" stroke="#2563EB" stroke-width="2" />
  <path d="M38 37 L40 40 L38 43" stroke="#2563EB" stroke-width="2" fill="none" />
  
  <path d="M60 40 L70 40" stroke="#2563EB" stroke-width="2" />
  <path d="M68 37 L70 40 L68 43" stroke="#2563EB" stroke-width="2" fill="none" />
  
  <path d="M30 60 L40 60" stroke="#2563EB" stroke-width="2" />
  <path d="M38 57 L40 60 L38 63" stroke="#2563EB" stroke-width="2" fill="none" />
  
  <path d="M60 60 L70 60" stroke="#2563EB" stroke-width="2" />
  <path d="M68 57 L70 60 L68 63" stroke="#2563EB" stroke-width="2" fill="none" />
  
  <path d="M30 80 L40 80" stroke="#2563EB" stroke-width="2" />
  <path d="M38 77 L40 80 L38 83" stroke="#2563EB" stroke-width="2" fill="none" />
  
  <path d="M60 80 L70 80" stroke="#2563EB" stroke-width="2" />
  <path d="M68 77 L70 80 L68 83" stroke="#2563EB" stroke-width="2" fill="none" />
</svg>
