<?xml version="1.0" encoding="UTF-8"?>
<svg width="100" height="100" viewBox="0 0 100 100" fill="none" xmlns="http://www.w3.org/2000/svg">
  <rect width="100" height="100" rx="10" fill="#f0f4ff"/>
  <!-- Grid -->
  <rect x="10" y="10" width="16" height="16" rx="3" stroke="#4f46e5" stroke-width="2" fill="white"/>
  <rect x="30" y="10" width="16" height="16" rx="3" stroke="#4f46e5" stroke-width="2" fill="white"/>
  <rect x="50" y="10" width="16" height="16" rx="3" stroke="#4f46e5" stroke-width="2" fill="white"/>
  <rect x="70" y="10" width="16" height="16" rx="3" stroke="#4f46e5" stroke-width="2" fill="white"/>

  <rect x="10" y="30" width="16" height="16" rx="3" stroke="#4f46e5" stroke-width="2" fill="white"/>
  <rect x="30" y="30" width="16" height="16" rx="3" stroke="#4f46e5" stroke-width="2" fill="#4f46e5"/>
  <rect x="50" y="30" width="16" height="16" rx="3" stroke="#4f46e5" stroke-width="2" fill="#4f46e5"/>
  <rect x="70" y="30" width="16" height="16" rx="3" stroke="#4f46e5" stroke-width="2" fill="#4f46e5"/>

  <rect x="10" y="50" width="16" height="16" rx="3" stroke="#4f46e5" stroke-width="2" fill="white"/>
  <rect x="30" y="50" width="16" height="16" rx="3" stroke="#4f46e5" stroke-width="2" fill="white"/>
  <rect x="50" y="50" width="16" height="16" rx="3" stroke="#4f46e5" stroke-width="2" fill="white"/>
  <rect x="70" y="50" width="16" height="16" rx="3" stroke="#4f46e5" stroke-width="2" fill="white"/>

  <rect x="10" y="70" width="16" height="16" rx="3" stroke="#4f46e5" stroke-width="2" fill="white"/>
  <rect x="30" y="70" width="16" height="16" rx="3" stroke="#4f46e5" stroke-width="2" fill="white"/>
  <rect x="50" y="70" width="16" height="16" rx="3" stroke="#4f46e5" stroke-width="2" fill="white"/>
  <rect x="70" y="70" width="16" height="16" rx="3" stroke="#4f46e5" stroke-width="2" fill="white"/>

  <!-- Letters -->
  <text x="14" y="22" font-family="Arial, sans-serif" font-size="12" font-weight="bold" fill="#4f46e5">W</text>
  <text x="34" y="22" font-family="Arial, sans-serif" font-size="12" font-weight="bold" fill="#4f46e5">O</text>
  <text x="54" y="22" font-family="Arial, sans-serif" font-size="12" font-weight="bold" fill="#4f46e5">R</text>
  <text x="74" y="22" font-family="Arial, sans-serif" font-size="12" font-weight="bold" fill="#4f46e5">D</text>

  <text x="14" y="42" font-family="Arial, sans-serif" font-size="12" font-weight="bold" fill="#4f46e5">S</text>
  <text x="34" y="42" font-family="Arial, sans-serif" font-size="12" font-weight="bold" fill="white">E</text>
  <text x="54" y="42" font-family="Arial, sans-serif" font-size="12" font-weight="bold" fill="white">A</text>
  <text x="74" y="42" font-family="Arial, sans-serif" font-size="12" font-weight="bold" fill="white">R</text>

  <text x="14" y="62" font-family="Arial, sans-serif" font-size="12" font-weight="bold" fill="#4f46e5">P</text>
  <text x="34" y="62" font-family="Arial, sans-serif" font-size="12" font-weight="bold" fill="#4f46e5">Q</text>
  <text x="54" y="62" font-family="Arial, sans-serif" font-size="12" font-weight="bold" fill="#4f46e5">C</text>
  <text x="74" y="62" font-family="Arial, sans-serif" font-size="12" font-weight="bold" fill="#4f46e5">H</text>

  <text x="14" y="82" font-family="Arial, sans-serif" font-size="12" font-weight="bold" fill="#4f46e5">Y</text>
  <text x="34" y="82" font-family="Arial, sans-serif" font-size="12" font-weight="bold" fill="#4f46e5">X</text>
  <text x="54" y="82" font-family="Arial, sans-serif" font-size="12" font-weight="bold" fill="#4f46e5">Z</text>
  <text x="74" y="82" font-family="Arial, sans-serif" font-size="12" font-weight="bold" fill="#4f46e5">T</text>
</svg>
